<svg id="visual" viewBox="0 0 900 600" width="900" height="600" xmlns="http://www.w3.org/2000/svg" xmlns:xlink="http://www.w3.org/1999/xlink" version="1.1"><path d="M0 223L150 157L300 211L450 223L600 241L750 193L900 205L900 0L750 0L600 0L450 0L300 0L150 0L0 0Z" fill="#fac971"></path><path d="M0 343L150 247L300 343L450 319L600 325L750 337L900 301L900 203L750 191L600 239L450 221L300 209L150 155L0 221Z" fill="#eaa873"></path><path d="M0 463L150 349L300 463L450 439L600 445L750 409L900 415L900 299L750 335L600 323L450 317L300 341L150 245L0 341Z" fill="#d08d74"></path><path d="M0 601L150 601L300 601L450 601L600 601L750 601L900 601L900 413L750 407L600 443L450 437L300 461L150 347L0 461Z" fill="#ad7772"></path></svg>